<svg id="flat" height="512" viewBox="0 0 512 512" width="512" xmlns="http://www.w3.org/2000/svg"><path d="m472 440h-432v-241c0-8.284 6.716-15 15-15h402c8.284 0 15 6.716 15 15z" fill="#6498d8"/><path d="m465.818 472h-419.636c-12.251 0-22.182-9.931-22.182-22.182v-9.818h464v9.818c0 12.251-9.931 22.182-22.182 22.182z" fill="#476c99"/><path d="m64 208h384v232h-384z" fill="#77d0e8"/><path d="m144 24-56 53.667v330.333h336v-384z" fill="#ffda7d"/><path d="m144 80v-56l-56 56z" fill="#c3a760"/><g fill="#476c99"><path d="m208 48c-4.418 0-8 3.582-8 8v21.578l-17.344-26.016c-1.955-2.934-5.596-4.242-8.975-3.219-3.373 1.022-5.681 4.132-5.681 7.657v48c0 4.418 3.582 8 8 8s8-3.582 8-8v-21.578l17.344 26.016c1.512 2.268 4.032 3.563 6.657 3.563.771 0 1.551-.112 2.317-.345 3.374-1.021 5.682-4.131 5.682-7.656v-48c0-4.418-3.582-8-8-8z"/><path d="m264 64c4.418 0 8-3.582 8-8s-3.582-8-8-8h-32c-4.418 0-8 3.582-8 8v48c0 4.418 3.582 8 8 8h32c4.418 0 8-3.582 8-8s-3.582-8-8-8h-24v-8h24c4.418 0 8-3.582 8-8s-3.582-8-8-8h-24v-8z"/><path d="m337.315 48.108c-4.351-.725-8.479 2.218-9.207 6.576l-2.704 16.229-5.814-17.443c-1.089-3.267-4.147-5.47-7.59-5.47s-6.501 2.203-7.59 5.47l-5.814 17.444-2.704-16.229c-.727-4.358-4.843-7.298-9.207-6.576-4.358.727-7.302 4.849-6.576 9.207l8 48c.604 3.625 3.602 6.373 7.266 6.66 3.664.292 7.053-1.959 8.216-5.445l8.409-25.233 8.41 25.232c1.096 3.286 4.168 5.47 7.586 5.47.209 0 .419-.008.63-.024 3.664-.287 6.661-3.035 7.266-6.66l8-48c.725-4.359-2.218-8.481-6.577-9.208z"/><path d="m384 72h-16v-8h16c0 4.418 3.582 8 8 8s8-3.582 8-8c0-8.822-7.178-16-16-16h-16c-8.822 0-16 7.178-16 16v8c0 8.822 7.178 16 16 16h16v8l-16 .01s0-.003 0-.01c0-4.418-3.582-8-8-8s-8 3.582-8 8c0 8.822 7.178 16 16 16h16c8.822 0 16-7.178 16-16v-8c0-8.822-7.178-16-16-16z"/></g><g><path d="m392 224h-272c-4.418 0-8-3.582-8-8s3.582-8 8-8h272c4.418 0 8 3.582 8 8s-3.582 8-8 8z" fill="#476c99"/></g><g><path d="m392 192h-272c-4.418 0-8-3.582-8-8s3.582-8 8-8h272c4.418 0 8 3.582 8 8s-3.582 8-8 8z" fill="#476c99"/></g><g><path d="m392 160h-112c-4.418 0-8-3.582-8-8s3.582-8 8-8h112c4.418 0 8 3.582 8 8s-3.582 8-8 8z" fill="#476c99"/></g><g><path d="m296 256h-176c-4.418 0-8-3.582-8-8s3.582-8 8-8h176c4.418 0 8 3.582 8 8s-3.582 8-8 8z" fill="#476c99"/></g><g><path d="m392 288h-136c-4.418 0-8-3.582-8-8s3.582-8 8-8h136c4.418 0 8 3.582 8 8s-3.582 8-8 8z" fill="#476c99"/></g><g><path d="m240 320h-120c-4.418 0-8-3.582-8-8s3.582-8 8-8h120c4.418 0 8 3.582 8 8s-3.582 8-8 8z" fill="#476c99"/></g><g><path d="m240 352h-120c-4.418 0-8-3.582-8-8s3.582-8 8-8h120c4.418 0 8 3.582 8 8s-3.582 8-8 8z" fill="#476c99"/></g><g><path d="m120 384c-4.418 0-8-3.582-8-8s3.582-8 8-8l136-.001c4.418 0 8 3.582 8 8s-3.582 8-8 8z" fill="#476c99"/></g><path d="m374.286 352h-236.572c-5.365 0-9.714-4.349-9.714-9.714v-92.572c0-5.365 4.349-9.714 9.714-9.714h236.572c5.365 0 9.714 4.349 9.714 9.714v92.572c0 5.365-4.349 9.714-9.714 9.714z" fill="#ef7086"/><g fill="#ffda7d"><path d="m352 304c4.418 0 8-3.582 8-8s-3.582-8-8-8h-24v-8h24c4.418 0 8-3.582 8-8s-3.582-8-8-8h-32c-4.418 0-8 3.582-8 8v48c0 4.418 3.582 8 8 8h32c4.418 0 8-3.582 8-8s-3.582-8-8-8h-24v-8z"/><path d="m184 280c4.418 0 8-3.582 8-8s-3.582-8-8-8h-32c-4.418 0-8 3.582-8 8v48c0 4.418 3.582 8 8 8s8-3.582 8-8v-16h24c4.418 0 8-3.582 8-8s-3.582-8-8-8h-24v-8z"/><path d="m240 264h-32c-4.418 0-8 3.582-8 8v48c0 4.418 3.582 8 8 8s8-3.582 8-8v-16h16v16c0 4.418 3.582 8 8 8s8-3.582 8-8v-48c0-4.418-3.582-8-8-8zm-24 24v-8h16v8z"/><path d="m302.4 267.2c-2.653-3.536-7.669-4.251-11.2-1.601l-19.2 14.401v-8c0-4.418-3.582-8-8-8s-8 3.582-8 8v48c0 4.418 3.582 8 8 8s8-3.582 8-8v-8l19.2 14.4c1.439 1.079 3.123 1.601 4.794 1.6 2.432 0 4.834-1.104 6.406-3.2 2.65-3.534 1.935-8.549-1.601-11.2l-23.466-17.6 23.467-17.6c3.535-2.651 4.251-7.666 1.6-11.2z"/></g></svg>